#!OML:ASF H:\LiuWeirdWalks\Patient Classification 1\Patient 1\Session 1\male.ASF
:FULLY-SPECIFIED
:DEGREES
539
root 1.14633 17.6913 33.7702 -1.59006 -2.54351 -0.0190637
lowerback 10.1973 1.28847 -3.35796
upperback -0.395463 1.40236 1.48896
thorax -6.26695 0.822897 3.24298
lowerneck -26.297 -0.0869588 4.05871
upperneck 23.7677 -0.738873 -3.52757
head 12.1659 -0.443043 -2.14618
rclavicle 1.86361e-016 2.38542e-015
rhumerus -40.5967 -2.66647 -78.4788
rradius 37.5552
rwrist -8.1173
rhand -19.0575 -2.57267
rfingers 7.12502
rthumb 7.24966 -32.4285
lclavicle 1.86361e-016 2.38542e-015
lhumerus -31.9841 -0.870614 84.8098
lradius 34.1145
lwrist 4.02153
lhand -15.7117 -10.4171
lfingers 7.12502
lthumb 10.4783 19.3018
rfemur -21.3771 -1.408 18.3712
rtibia 56.446
rfoot -12.0451 -13.6115
rtoes -4.00389
lfemur -13.0988 -3.30925 -25.384
ltibia 33.1211
lfoot -13.3221 17.2126
ltoes -2.55494
540
root 1.1442 17.6843 33.8014 -1.68199 -2.77966 0.0504519
lowerback 10.1198 1.17839 -3.59361
upperback -0.308782 1.24039 1.65303
thorax -6.12743 0.749736 3.5767
lowerneck -26.2663 0.268826 4.43697
upperneck 23.6284 -0.282549 -3.89508
head 12.1257 -0.257288 -2.26587
rclavicle -9.46712e-015 1.11319e-014
rhumerus -40.1467 -2.27344 -78.4665
rradius 37.0292
rwrist -7.86547
rhand -19.0256 -2.60378
rfingers 7.12502
rthumb 7.2804 -32.4585
lclavicle -9.46712e-015 1.11319e-014
lhumerus -32.3353 0.0978958 84.7495
lradius 33.7032
lwrist 3.93628
lhand -15.5886 -10.4018
lfingers 7.12502
lthumb 10.5971 19.311
rfemur -21.0821 -1.22401 18.2834
rtibia 56.3253
rfoot -12.1548 -13.4613
rtoes -4.48318
lfemur -12.9165 -3.11037 -25.4537
ltibia 33.1837
lfoot -13.2793 17.2579
ltoes -2.12334
541
root 1.14123 17.6781 33.8319 -1.75744 -3.00037 0.0747673
lowerback 10.0246 1.00669 -3.8784
upperback -0.221419 0.994791 1.87338
thorax -5.96891 0.63665 4.01057
lowerneck -26.1982 0.700178 4.89106
upperneck 23.4754 0.268053 -4.32247
head 12.0827 -0.0303601 -2.40399
rclavicle 7.1811e-015 1.23246e-014
rhumerus -39.6286 -1.74464 -78.4801
rradius 36.4879
rwrist -7.57595
rhand -18.9773 -2.62838
rfingers 7.12502
rthumb 7.32703 -32.4815
lclavicle 7.1811e-015 1.23246e-014
lhumerus -32.7233 1.28733 84.6216
lradius 33.278
lwrist 3.87644
lhand -15.4931 -10.3923
lfingers 7.12502
lthumb 10.6891 19.3158
rfemur -20.7932 -1.03539 18.2551
rtibia 56.1714
rfoot -12.4295 -13.3278
rtoes -4.68992
lfemur -12.7482 -2.92409 -25.4665
ltibia 33.2336
lfoot -13.2028 17.2826
ltoes -1.62199
542
root 1.13911 17.6728 33.8659 -1.84157 -3.18403 0.152954
lowerback 9.94692 1.00954 -3.81434
upperback -0.167459 1.0109 1.90542
thorax -5.86892 0.639896 4.00593
lowerneck -26.1657 0.818205 4.98289
upperneck 23.3921 0.432505 -4.44198
head 12.054 0.0343789 -2.43394
rclavicle 1.5791e-014 2.38542e-014
rhumerus -39.3552 -1.94871 -78.3017
rradius 36.0125
rwrist -7.23857
rhand -18.9561 -2.61836
rfingers 7.12502
rthumb 7.34757 -32.4708
lclavicle 1.5791e-014 2.38542e-014
lhumerus -33.0476 1.78517 84.6337
lradius 32.7875
lwrist 3.78139
lhand -15.3882 -10.3426
lfingers 7.12502
lthumb 10.7904 19.3602
rfemur -20.4679 -0.911382 18.155
rtibia 55.9896
rfoot -12.7958 -13.2189
rtoes -4.53858
lfemur -12.5394 -2.76276 -25.5476
ltibia 33.2536
lfoot -13.1237 17.299
ltoes -1.11908
543
root 1.13638 17.6686 33.9005 -1.90688 -3.34693 0.19831
lowerback 9.85197 1.00172 -3.71904
upperback -0.129842 1.0174 1.94946
thorax -5.77517 0.638213 3.99777
lowerneck -26.104 0.927625 5.06432
upperneck 23.3287 0.587073 -4.54879
head 12.0272 0.0959962 -2.45925
rclavicle -8.29926e-015 9.14409e-015
rhumerus -39.1071 -2.1746 -78.1098
rradius 35.5551
rwrist -6.92481
rhand -18.9559 -2.5925
rfingers 7.12502
rthumb 7.34767 -32.4449
lclavicle -8.29926e-015 9.14409e-015
lhumerus -33.4 2.3129 84.6218
lradius 32.2675
lwrist 3.641
lhand -15.2876 -10.3091
lfingers 7.12502
lthumb 10.8874 19.3886
rfemur -20.1469 -0.801921 18.0987
rtibia 55.7757
rfoot -13.2311 -13.1889
rtoes -4.25461
lfemur -12.3395 -2.60204 -25.5871
ltibia 33.2556
lfoot -13.0543 17.2891
ltoes -0.683557
544
root 1.13548 17.6649 33.9337 -1.94844 -3.44164 0.280231
lowerback 9.76012 0.970365 -3.62842
upperback -0.111654 0.990865 1.98142
thorax -5.70035 0.62105 3.98438
lowerneck -26.0265 1.03573 5.14822
upperneck 23.2624 0.7407 -4.65975
head 11.9968 0.157066 -2.48656
rclavicle -9.19379e-016 1.98785e-015
rhumerus -38.8722 -2.40194 -77.9124
rradius 35.1127
rwrist -6.68142
rhand -18.9962 -2.5446
rfingers 7.12502
rthumb 7.30878 -32.3984
lclavicle -9.19379e-016 1.98785e-015
lhumerus -33.7587 2.86568 84.5967
lradius 31.708
lwrist 3.48243
lhand -15.2033 -10.2604
lfingers 7.12502
lthumb 10.9687 19.433
rfemur -19.8429 -0.79292 17.9836
rtibia 55.5331
rfoot -13.7603 -13.1935
rtoes -3.96339
lfemur -12.1598 -2.45568 -25.6748
ltibia 33.2384
lfoot -13.0013 17.2348
ltoes -0.410004
545
root 1.1336 17.6625 33.969 -1.98164 -3.51833 0.352283
lowerback 9.64133 0.933621 -3.5392
upperback -0.0982024 0.957996 2.02154
thorax -5.615 0.600856 3.98136
lowerneck -25.9432 1.13998 5.23883
upperneck 23.1979 0.88724 -4.77338
head 11.9659 0.215406 -2.51728
rclavicle -2.12451e-015 -9.93923e-015
rhumerus -38.6546 -2.64786 -77.703
rradius 34.69
rwrist -6.47713
rhand -19.0359 -2.50588
rfingers 7.12502
rthumb 7.2705 -32.361
lclavicle -2.12451e-015 -9.93923e-015
lhumerus -34.1156 3.41737 84.5673
lradius 31.1051
lwrist 3.36277
lhand -15.1561 -10.2075
lfingers 7.12502
lthumb 11.0142 19.4836
rfemur -19.5259 -0.794874 17.885
rtibia 55.2543
rfoot -14.4172 -13.2786
rtoes -3.82602
lfemur -11.9741 -2.29801 -25.7452
ltibia 33.2085
lfoot -12.9852 17.1549
ltoes -0.323196
546
root 1.1302 17.6614 34.0046 -1.99741 -3.58394 0.349048
lowerback 9.51838 0.888787 -3.40226
upperback -0.0958145 0.921321 2.09482
thorax -5.53844 0.578387 3.98667
lowerneck -25.8686 1.24792 5.34252
upperneck 23.1383 1.03816 -4.90338
head 11.9394 0.274718 -2.55588
rclavicle 1.00014e-014 7.15625e-015
rhumerus -38.4565 -2.90355 -77.4769
rradius 34.2937
rwrist -6.30502
rhand -19.0651 -2.45653
rfingers 7.12502
rthumb 7.24229 -32.3126
lclavicle 1.00014e-014 7.15625e-015
lhumerus -34.4665 3.99593 84.5256
lradius 30.4451
lwrist 3.19075
lhand -15.13 -10.2002
lfingers 7.12502
lthumb 11.0394 19.4895
rfemur -19.2075 -0.784851 17.8835
rtibia 54.93
rfoot -15.1817 -13.4734
rtoes -3.8671
lfemur -11.7959 -2.13129 -25.722
ltibia 33.1643
lfoot -12.9975 17.0519
ltoes -0.447525
547
root 1.12559 17.6616 34.0427 -2.02031 -3.64476 0.350194
lowerback 9.37791 0.845383 -3.28461
upperback -0.0912602 0.88463 2.17286
thorax -5.45026 0.556294 4.00782
lowerneck -25.7993 1.3528 5.44896
upperneck 23.089 1.18261 -5.0297
head 11.9179 0.332021 -2.59496
rclavicle -1.19644e-014 -1.03368e-014
rhumerus -38.2835 -3.18354 -77.2346
rradius 33.9304
rwrist -6.13957
rhand -19.0743 -2.41052
rfingers 7.12502
rthumb 7.23346 -32.2669
lclavicle -1.19644e-014 -1.03368e-014
lhumerus -34.7984 4.58739 84.4637
lradius 29.7167
lwrist 2.93395
lhand -15.0805 -10.2214
lfingers 7.12502
lthumb 11.0871 19.4658
rfemur -18.8583 -0.766847 17.884
rtibia 54.5532
rfoot -16.0461 -13.7691
rtoes -4.16011
lfemur -11.5968 -1.95037 -25.6966
ltibia 33.1179
lfoot -13.0462 16.9388
ltoes -0.725898
548
root 1.1191 17.6632 34.0844 -2.06995 -3.70264 0.300352
lowerback 9.22951 0.799028 -3.14357
upperback -0.0792133 0.847388 2.27343
thorax -5.34974 0.533287 4.03931
lowerneck -25.7199 1.46036 5.56639
upperneck 23.0572 1.32804 -5.15771
head 11.9019 0.390845 -2.6367
rclavicle -3.71479e-015 -2.22639e-014
rhumerus -38.1591 -3.4623 -76.9855
rradius 33.6221
rwrist -5.99894
rhand -19.0799 -2.35288
rfingers 7.12502
rthumb 7.22804 -32.2094
lclavicle -3.71479e-015 -2.22639e-014
lhumerus -35.1306 5.19238 84.378
lradius 28.9407
lwrist 2.59468
lhand -15.011 -10.2706
lfingers 7.12502
lthumb 11.1541 19.4129
rfemur -18.4418 -0.740958 17.951
rtibia 54.1157
rfoot -16.9759 -14.1823
rtoes -4.63444
lfemur -11.3518 -1.76599 -25.6084
ltibia 33.0824
lfoot -13.1449 16.8258
ltoes -1.07881
549
root 1.10994 17.6663 34.1261 -2.10888 -3.78888 0.106362
lowerback 9.08924 0.763921 -2.88264
upperback -0.0729691 0.839263 2.41629
thorax -5.26154 0.522488 4.04298
lowerneck -25.6416 1.55282 5.66999
upperneck 23.0463 1.45267 -5.26595
head 11.893 0.442008 -2.67274
rclavicle 1.07592e-014 -1.19271e-014
rhumerus -38.0886 -3.77522 -76.7236
rradius 33.3857
rwrist -5.87785
rhand -19.0787 -2.30975
rfingers 7.12502
rthumb 7.22921 -32.1663
lclavicle 1.07592e-014 -1.19271e-014
lhumerus -35.4395 5.76838 84.2819
lradius 28.114
lwrist 2.23131
lhand -14.9023 -10.3096
lfingers 7.12502
lthumb 11.259 19.3682
rfemur -18.0174 -0.648128 18.2062
rtibia 53.6104
rfoot -17.8792 -14.7315
rtoes -5.25887
lfemur -11.1313 -1.57191 -25.3447
ltibia 33.0918
lfoot -13.2876 16.7211
ltoes -1.43756
550
root 1.1012 17.6702 34.1661 -2.10534 -3.89029 -0.152421
lowerback 8.94075 0.736474 -2.5335
upperback -0.083175 0.850047 2.56583
thorax -5.18648 0.519477 4.00084
lowerneck -25.5751 1.63537 5.77282
upperneck 23.055 1.56002 -5.36146
head 11.8927 0.487168 -2.70737
rclavicle 9.83984e-015 1.82882e-014
rhumerus -38.0609 -4.08447 -76.4725
rradius 33.21
rwrist -5.8096
rhand -19.0927 -2.27622
rfingers 7.12502
rthumb 7.21566 -32.1332
lclavicle 9.83984e-015 1.82882e-014
lhumerus -35.7267 6.30111 84.1775
lradius 27.2613
lwrist 1.86165
lhand -14.7768 -10.3023
lfingers 7.12502
lthumb 11.38 19.3689
rfemur -17.6337 -0.544489 18.5396
rtibia 53.0437
rfoot -18.7064 -15.341
rtoes -5.89996
lfemur -10.9894 -1.39214 -25.0085
ltibia 33.1709
lfoot -13.4664 16.6441
ltoes -1.74913
551
root 1.09086 17.6753 34.2008 -2.02784 -4.04867 -0.630131
lowerback 8.81339 0.727122 -1.97169
upperback -0.124014 0.908398 2.7682
thorax -5.15694 0.536518 3.88715
lowerneck -25.5203 1.69432 5.85483
upperneck 23.0867 1.63267 -5.42291
head 11.901 0.51959 -2.73221
rclavicle 9.405e-015 -2.38542e-014
rhumerus -38.0755 -4.38817 -76.2385
rradius 33.0906
rwrist -5.80316
rhand -19.1263 -2.26605
rfingers 7.12502
rthumb 7.18324 -32.1241
lclavicle 9.405e-015 -2.38542e-014
lhumerus -35.9895 6.76996 84.074
lradius 26.3883
lwrist 1.52375
lhand -14.6572 -10.2806
lfingers 7.12502
lthumb 11.4954 19.3842
rfemur -17.346 -0.330787 19.1542
rtibia 52.4339
rfoot -19.4166 -16.045
rtoes -6.53044
lfemur -10.9952 -1.22441 -24.414
ltibia 33.3702
lfoot -13.6845 16.6129
ltoes -1.99024
552
root 1.08321 17.6806 34.2292 -1.85602 -4.20336 -1.20741
lowerback 8.69736 0.714662 -1.25799
upperback -0.202373 0.977744 2.9802
thorax -5.17089 0.556117 3.69617
lowerneck -25.4904 1.74563 5.93463
upperneck 23.1145 1.69058 -5.47281
head 11.9114 0.546514 -2.75493
rclavicle -1.15544e-015 3.18055e-015
rhumerus -38.1114 -4.66186 -76.0306
rradius 33.0161
rwrist -5.86675
rhand -19.1649 -2.28433
rfingers 7.12502
rthumb 7.14593 -32.1437
lclavicle -1.15544e-015 3.18055e-015
lhumerus -36.2228 7.20733 83.9617
lradius 25.5033
lwrist 1.1496
lhand -14.4942 -10.1914
lfingers 7.12502
lthumb 11.6525 19.4646
rfemur -17.1731 -0.134711 19.8704
rtibia 51.7588
rfoot -19.994 -16.7221
rtoes -7.07485
lfemur -11.1484 -1.09936 -23.7201
ltibia 33.6325
lfoot -13.901 16.6139
ltoes -2.17672
